<?xml version="1.0" encoding="utf-8"?>
<!-- Generator: Adobe Illustrator 22.1.0, SVG Export Plug-In . SVG Version: 6.00 Build 0)  -->
<svg version="1.1" id="Layer_1" xmlns="http://www.w3.org/2000/svg" xmlns:xlink="http://www.w3.org/1999/xlink" x="0px" y="0px"
	 viewBox="0 0 1352 291" style="enable-background:new 0 0 1352 291;" xml:space="preserve">
<style type="text/css">
	.st0{fill:url(#SVGID_1_);}
</style>
<title>Thorchain_logo_white_text</title>
<desc>Created with Sketch.</desc>
<linearGradient id="SVGID_1_" gradientUnits="userSpaceOnUse" x1="374.5154" y1="444.9699" x2="375.5154" y2="444.9699" gradientTransform="matrix(253.26 0 0 -290.5 -94849.7578 129409)">
	<stop  offset="0" style="stop-color:#00CCFF"/>
	<stop  offset="1" style="stop-color:#33FF99"/>
</linearGradient>
<path class="st0" d="M0,290.5l202.8-85.4L138.6,140L0,290.5z M74.5,75l64.2,65L253.3,0L74.5,75z"/>
<polygon points="352.8,106.6 321,106.6 321,90 403,90 403,106.7 371.4,106.7 371.4,200.7 352.8,200.7 "/>
<polygon points="442.8,90 461.2,90 461.2,137.9 507.9,137.9 507.9,90 526.5,90 526.5,200.7 507.9,200.7 507.9,154.5 461.2,154.5 
	461.2,200.7 442.8,200.7 "/>
<path d="M590.3,197.3c-6.3-2.9-11-8.3-14.2-16.3c-3.2-8-4.8-19.8-4.8-35.3c0-15.5,1.6-27.3,4.9-35.5c3.2-8.2,8-13.8,14.3-16.8
	c6.3-2.9,14.8-4.4,25.3-4.4c10.6,0,19.1,1.5,25.6,4.4c6.3,3,11.1,8.5,14.3,16.7s4.8,20,4.8,35.6c0,15.5-1.6,27.3-4.9,35.3
	c-3.3,8-8,13.5-14.2,16.4c-6.2,2.8-14.8,4.3-25.6,4.3C605,201.6,596.5,200.2,590.3,197.3z M631.7,181.9c3.7-2,6.3-5.8,7.9-11.3
	c1.6-5.5,2.4-13.9,2.4-25c0-11.5-0.8-20.1-2.5-25.8c-1.7-5.7-4.3-9.5-7.9-11.4c-3.6-1.9-8.8-2.8-15.8-2.8c-6.7,0-11.8,1-15.4,2.9
	c-3.6,1.9-6.2,5.7-8,11.4c-1.7,5.6-2.5,14.2-2.5,25.7c0,11.2,0.8,19.5,2.3,25c1.5,5.5,4.1,9.2,7.8,11.3c3.6,2,8.9,3,15.9,3
	C622.8,184.9,628,183.9,631.7,181.9z"/>
<path d="M705.4,90h45c9.4,0,16.8,2.5,22.3,7.4s8.2,13.9,8.2,26.9c0,9.8-1.7,16.9-5.2,21.4c-3.4,4.5-8.2,7.9-13.6,9.6l21.3,45.3
	h-18.8l-19.2-42.6c-6.1,0-13.3-0.1-21.8-0.3v42.9h-18.4V90z M747.2,143.2c4.8,0,8.5-1.4,11.2-4.1c2.6-2.7,4-7.7,4-14.8
	c0-6.8-1.3-11.5-4-14c-2.7-2.5-6.4-3.8-11.2-3.8h-23.4v36.6L747.2,143.2z"/>
<path d="M839.8,197.1c-5.6-3-9.9-8.5-12.8-16.7c-3-8.2-4.4-20-4.4-35.5c0-14.7,1.5-26.1,4.5-34.3s7.4-13.8,13.2-16.9
	c5.8-3.2,13.3-4.7,22.5-4.7c6.1,0,12.1,0.5,18.1,1.4c5.2,0.8,10.4,1.9,15.5,3.4V108c-3-0.6-7.3-1.1-12.8-1.6
	c-5.6-0.5-11.2-0.8-17-0.8c-6.6,0-11.7,1-15.2,3.1c-3.6,2-6.1,5.9-7.7,11.5c-1.6,5.6-2.4,13.9-2.4,25s0.8,19.4,2.2,25.1
	c1.5,5.6,4,9.5,7.5,11.5c3.5,2.1,8.7,3.1,15.5,3.2c10,0.1,20-0.5,30-1.7v14.2c-9.1,2.7-20.5,4-34,4.1
	C852.9,201.6,845.4,200.1,839.8,197.1z"/>
<polygon points="940,90 958.5,90 958.5,137.9 1005.1,137.9 1005.1,90 1023.7,90 1023.7,200.7 1005.1,200.7 1005.1,154.5 
	958.5,154.5 958.5,200.7 940,200.7 "/>
<path d="M1100.5,90h23.4l36,110.7h-19.3l-8.6-26.3h-40l-8.4,26.2h-19L1100.5,90z M1127.5,157.8l-15.6-51.9l-15.6,51.9H1127.5z"/>
<polygon points="1200.6,90 1219,90 1219,200.7 1200.6,200.7 "/>
<polygon points="1267.9,90 1282.7,90 1333.1,169.1 1333.1,90 1351.7,90 1351.7,200.7 1336.9,200.7 1286.5,121.7 1286.5,200.7 
	1267.9,200.7 "/>
</svg>
